<svg xmlns="http://www.w3.org/2000/svg" width="12.9961mm" height="22.9055mm" viewBox="0 0 36.8392 64.9289">
  <g id="Capa_2" data-name="Capa 2">
    <path d="M8.2859,64.9289V42.6217h3.3463l.8922,2.4092c.5355-1.517,2.7216-2.8554,5.2646-2.8554,3.0339,0,5.1752.9367,6.3354,2.9447v-.0893c.5354-1.517,2.7212-2.8554,5.2646-2.8554,6.781,0,7.45,3.6583,7.45,11.6V64.9289H32.6011V53.7751c0-7.9413-.2679-10.93-3.6583-10.93a5.08,5.08,0,0,0-4.5509,2.81c.8922,1.8742,1.0709,4.5509,1.0709,8.12V64.9289H21.2242V53.7751c0-7.9413-.4906-10.93-3.8813-10.93a5.0052,5.0052,0,0,0-4.8185,3.569V64.9289Z" fill="#c3accf"/>
    <path d="M0,0H6.0864V64.9289H0Z" fill="#c3accf"/>
  </g>
</svg>
